<!-- icon666.com - MILLIONS vector ICONS FREE --><svg xmlns="http://www.w3.org/2000/svg" xmlns:xlink="http://www.w3.org/1999/xlink" version="1.1" id="Capa_1" x="0px" y="0px" viewBox="0 0 512 512" style="enable-background:new 0 0 512 512;" xml:space="preserve"><g xmlns:cc="http://creativecommons.org/ns#" xmlns:dc="http://purl.org/dc/elements/1.1/" xmlns:inkscape="http://www.inkscape.org/namespaces/inkscape" xmlns:rdf="http://www.w3.org/1999/02/22-rdf-syntax-ns#" xmlns:sodipodi="http://sodipodi.sourceforge.net/DTD/sodipodi-0.dtd" xmlns:svg="http://www.w3.org/2000/svg" inkscape:version="0.48.1 r9760" sodipodi:docname="twitter_bootstrap_logo.svg"><path d="M276.75,236.34h-85.34v-82.49h85.34c14.22,0,25.1,3.1,32.63,9.2c7.52,6.11,11.29,16.74,11.29,31.79 c0,13.39-4.18,23.6-12.55,30.79C299.75,232.83,289.3,236.34,276.75,236.34z" fill="#000000" style="fill: rgb(218, 197, 167);"></path><path d="M334.05,319.92c0,15.06-4.43,26.77-13.21,34.97c-8.7,8.28-21.09,12.38-36.98,12.38h-92.45V273.9h92.45 c15.89,0,28.11,3.85,36.98,11.88C329.7,293.81,334.05,305.11,334.05,319.92z" fill="#000000" style="fill: rgb(218, 197, 167);"></path><path d="M426.67,0H85.33C38.4,0,0,38.4,0,85.33v341.34C0,473.6,38.4,512,85.33,512h341.34c46.93,0,85.33-38.4,85.33-85.33V85.33 C512,38.4,473.6,0,426.67,0z M380.07,359.49c-4.19,10.2-10.71,18.99-19.66,26.35c-8.95,7.36-20.33,13.22-34.3,17.57 c-13.97,4.35-30.54,6.52-49.78,6.52h-137.2V111.27h145.15c26.77,0,48.27,6.11,64.42,18.4c16.14,12.3,24.26,30.79,24.26,55.64 c0,15.06-3.68,27.94-11.05,38.65c-7.36,10.71-17.9,19.07-31.62,24.93v0.84c18.41,3.93,32.38,12.63,41.83,26.1 c9.45,13.55,14.22,30.45,14.22,50.86C386.34,338.41,384.25,349.36,380.07,359.49z" fill="#000000" style="fill: rgb(218, 197, 167);"></path></g></svg>